<svg width="476" height="686" viewBox="0 0 476 686" fill="none" xmlns="http://www.w3.org/2000/svg">
<path fill-rule="evenodd" clip-rule="evenodd" d="M211.337 53.3328H132.67C89.2235 53.3328 54.0032 88.5531 54.0032 132C54.0032 175.446 89.2235 210.666 132.67 210.666H211.337V53.3328ZM211.337 -0.000488281H264.67H343.337C416.241 -0.000488281 475.334 59.0976 475.334 132C475.334 175.02 454.758 213.235 422.902 237.333C454.758 261.431 475.334 299.646 475.334 342.667C475.334 415.568 416.241 474.667 343.337 474.667C313.86 474.667 286.64 465.005 264.67 448.675V474.667V553.333C264.67 626.235 205.571 685.333 132.67 685.333C59.7681 685.333 0.669922 626.235 0.669922 553.333C0.669922 510.309 21.2502 472.098 53.103 448C21.2502 423.901 0.669922 385.687 0.669922 342.667C0.669922 299.646 21.2507 261.431 53.104 237.333C21.2507 213.235 0.669922 175.02 0.669922 132C0.669922 59.0976 59.7681 -0.000488281 132.67 -0.000488281H211.337ZM264.67 53.3328V210.666H343.337C386.785 210.666 422.001 175.446 422.001 132C422.001 88.5531 386.785 53.3328 343.337 53.3328H264.67ZM132.67 421.332H211.337V342.869V342.667V342.464V264H132.67C89.2235 264 54.0032 299.22 54.0032 342.667C54.0032 386.009 89.055 421.165 132.358 421.333L132.67 421.332ZM54.0032 553.333C54.0032 509.989 89.055 474.835 132.358 474.666L132.67 474.667H211.337V553.333C211.337 596.779 176.116 632 132.67 632C89.2235 632 54.0032 596.779 54.0032 553.333ZM264.67 342.51C264.755 299.136 299.942 264 343.337 264C386.785 264 422.001 299.22 422.001 342.667C422.001 386.113 386.785 421.333 343.337 421.333C299.942 421.333 264.755 386.198 264.67 342.823V342.51Z" fill="#FFD700"/>
</svg>
