<svg width="993" height="969" viewBox="0 0 993 969" fill="none" xmlns="http://www.w3.org/2000/svg">
<path d="M496.5 0C222.349 0 0 222.308 0 496.5C0 715.87 142.247 901.975 339.565 967.637C364.348 972.23 372.375 956.838 372.375 943.764V851.332C234.265 881.37 205.51 792.745 205.51 792.745C182.919 735.358 150.357 720.09 150.357 720.09C105.299 689.266 153.791 689.928 153.791 689.928C203.648 693.404 229.88 741.109 229.88 741.109C274.151 816.991 346.019 795.062 374.361 782.36C378.788 750.294 391.656 728.366 405.889 715.994C295.624 703.375 179.692 660.8 179.692 470.599C179.692 416.357 199.096 372.085 230.831 337.33C225.701 324.794 208.696 274.275 235.672 205.923C235.672 205.923 277.378 192.601 372.251 256.815C411.847 245.809 454.298 240.306 496.5 240.099C538.702 240.306 581.195 245.809 620.873 256.815C715.663 192.601 757.287 205.923 757.287 205.923C784.304 274.316 767.299 324.835 762.169 337.33C794.028 372.085 813.267 416.398 813.267 470.599C813.267 661.297 697.127 703.292 586.573 715.581C604.365 730.972 620.625 761.176 620.625 807.516V943.764C620.625 956.962 628.569 972.478 653.766 967.596C850.918 901.851 993 715.788 993 496.5C993 222.308 770.692 0 496.5 0Z" fill="#FFD700"/>
</svg>
