<svg width="2500" height="2500" viewBox="0 0 2500 2500" fill="none" xmlns="http://www.w3.org/2000/svg">
<g clip-path="url(#clip0_132_32)">
<path d="M1249.79 1517.45L2500 272.754V201.24C2500 90.1074 2409.89 0 2298.75 0H201.25C90.1074 0 0 90.1074 0 201.25V1669.06L694.014 979.062L1249.79 1517.45Z" fill="#F6F6F6"/>
<path d="M694.219 1541.31L0 2234.05V2298.74C0 2409.89 90.1074 2500 201.25 2500H2298.75C2409.89 2500 2500 2409.89 2500 2298.75V845.674L1249.79 2090.36L694.219 1541.31Z" fill="#FFD700"/>
<g filter="url(#filter0_d_132_32)">
<path d="M0 1669.06L694.014 979.062L1249.79 1517.44L2500 272.773L2499.79 845.84L1249.79 2090.37L694.219 1541.31L0 2234.06V1669.06Z" fill="#121212"/>
</g>
<path d="M972.188 1816.09L972.236 1248.54L694.219 1541.3L972.188 1816.09Z" fill="#F6F6F6"/>
</g>
<defs>
<filter id="filter0_d_132_32" x="-175.781" y="253.242" width="2851.56" height="2312.85" filterUnits="userSpaceOnUse" color-interpolation-filters="sRGB">
<feFlood flood-opacity="0" result="BackgroundImageFix"/>
<feColorMatrix in="SourceAlpha" type="matrix" values="0 0 0 0 0 0 0 0 0 0 0 0 0 0 0 0 0 0 127 0" result="hardAlpha"/>
<feOffset dy="156.25"/>
<feGaussianBlur stdDeviation="87.8906"/>
<feColorMatrix type="matrix" values="0 0 0 0 0 0 0 0 0 0 0 0 0 0 0 0 0 0 0.214965 0"/>
<feBlend mode="normal" in2="BackgroundImageFix" result="effect1_dropShadow_132_32"/>
<feBlend mode="normal" in="SourceGraphic" in2="effect1_dropShadow_132_32" result="shape"/>
</filter>
<clipPath id="clip0_132_32">
<rect width="2500" height="2500" fill="white"/>
</clipPath>
</defs>
</svg>
