<svg width="135" height="72" viewBox="0 0 135 72" fill="none" xmlns="http://www.w3.org/2000/svg">
<path d="M63.5 0.2V2.2C61.3 2.6 59.0667 3.43333 56.8 4.7C54.5333 5.96666 52.2 8.03333 49.8 10.9L30.9 34.1L35.4 26.9L59.3 62.9C60.3667 64.4333 61.4667 65.6667 62.6 66.6C63.7333 67.5333 65.2 68.3333 67 69V71C64.9333 70.8667 62.5667 70.8 59.9 70.8C57.2333 70.7333 54.8 70.7 52.6 70.7C51.3333 70.7 49.7333 70.7333 47.8 70.8C45.9333 70.8 43.5667 70.8667 40.7 71V69C43.3667 68.8667 44.9667 68.5 45.5 67.9C46.0333 67.2333 45.8 66.1 44.8 64.5L30.2 41.5C29.1333 39.7667 28.1667 38.4667 27.3 37.6C26.5 36.7333 25.6667 36.1667 24.8 35.9C23.9333 35.5667 22.8667 35.3667 21.6 35.3V33.3C24.4 33.1667 26.9 32.4333 29.1 31.1C31.3 29.7667 33.5 27.8 35.7 25.2L42.8 16.3C45.2667 13.3667 46.7667 10.8667 47.3 8.8C47.8333 6.73333 47.5333 5.13333 46.4 4C45.2667 2.86666 43.3667 2.26666 40.7 2.2V0.2C42.1667 0.266665 43.6333 0.333331 45.1 0.399997C46.5667 0.399997 48.0333 0.43333 49.5 0.499996C51.0333 0.499996 52.6333 0.499996 54.3 0.499996C56.2333 0.499996 57.9667 0.466663 59.5 0.399997C61.0333 0.333331 62.3667 0.266665 63.5 0.2ZM29.7 0.2V2.2C27.5667 2.26666 25.9333 2.53333 24.8 3C23.7333 3.4 23 4.2 22.6 5.4C22.2 6.53333 22 8.33333 22 10.8V60.4C22 62.8 22.2 64.6 22.6 65.8C23 67 23.7333 67.8 24.8 68.2C25.9333 68.6 27.5667 68.8667 29.7 69V71C28.0333 70.8667 25.9 70.8 23.3 70.8C20.7 70.7333 18.0667 70.7 15.4 70.7C12.4 70.7 9.6 70.7333 7 70.8C4.4 70.8 2.26667 70.8667 0.6 71V69C2.8 68.8667 4.43333 68.6 5.5 68.2C6.63333 67.8 7.36667 67 7.7 65.8C8.1 64.6 8.3 62.8 8.3 60.4V10.8C8.3 8.33333 8.1 6.53333 7.7 5.4C7.36667 4.2 6.63333 3.4 5.5 3C4.43333 2.53333 2.8 2.26666 0.6 2.2V0.2C2.26667 0.266665 4.4 0.333331 7 0.399997C9.6 0.466663 12.4 0.499996 15.4 0.499996C18.0667 0.499996 20.7 0.466663 23.3 0.399997C25.9 0.333331 28.0333 0.266665 29.7 0.2ZM79.6113 42.68V43.48C78.7579 43.5067 78.1046 43.6133 77.6513 43.8C77.2246 43.96 76.9313 44.28 76.7713 44.76C76.6113 45.2133 76.5312 45.9333 76.5312 46.92V66.76C76.5312 67.72 76.6113 68.44 76.7713 68.92C76.9313 69.4 77.2246 69.72 77.6513 69.88C78.1046 70.04 78.7579 70.1467 79.6113 70.2V71C78.9446 70.9467 78.0913 70.92 77.0513 70.92C76.0113 70.8933 74.9579 70.88 73.8913 70.88C72.6913 70.88 71.5713 70.8933 70.5313 70.92C69.4913 70.92 68.6379 70.9467 67.9713 71V70.2C68.8513 70.1467 69.5046 70.04 69.9313 69.88C70.3846 69.72 70.6779 69.4 70.8113 68.92C70.9713 68.44 71.0513 67.72 71.0513 66.76V46.92C71.0513 45.9333 70.9713 45.2133 70.8113 44.76C70.6779 44.28 70.3846 43.96 69.9313 43.8C69.5046 43.6133 68.8513 43.5067 67.9713 43.48V42.68C68.6379 42.7067 69.4913 42.7333 70.5313 42.76C71.5713 42.7867 72.6913 42.8 73.8913 42.8C74.9579 42.8 76.0113 42.7867 77.0513 42.76C78.0913 42.7333 78.9446 42.7067 79.6113 42.68ZM82.5416 42.68C83.2082 42.7067 84.0616 42.7333 85.1016 42.76C86.1416 42.7867 87.1816 42.8 88.2216 42.8C89.5282 42.8 90.7682 42.7867 91.9416 42.76C93.1149 42.7333 93.9416 42.72 94.4216 42.72C96.8216 42.72 98.7949 43.0133 100.342 43.6C101.915 44.16 103.088 44.96 103.862 46C104.635 47.04 105.022 48.2667 105.022 49.68C105.022 50.56 104.848 51.4667 104.502 52.4C104.155 53.3067 103.555 54.1467 102.702 54.92C101.848 55.6933 100.675 56.3333 99.1816 56.84C97.7149 57.32 95.8349 57.56 93.5416 57.56H89.7016V56.76H93.1416C94.8216 56.76 96.1016 56.4667 96.9816 55.88C97.8882 55.2667 98.4882 54.4667 98.7816 53.48C99.1016 52.4667 99.2616 51.3467 99.2616 50.12C99.2616 48.0133 98.8482 46.3867 98.0216 45.24C97.1949 44.0667 95.7682 43.48 93.7416 43.48C92.6482 43.48 91.9282 43.7067 91.5816 44.16C91.2616 44.6133 91.1016 45.5333 91.1016 46.92V66.76C91.1016 67.72 91.1816 68.44 91.3416 68.92C91.5016 69.4 91.7949 69.72 92.2216 69.88C92.6749 70.04 93.3282 70.1467 94.1816 70.2V71C93.5149 70.9467 92.6616 70.92 91.6216 70.92C90.5816 70.8933 89.5282 70.88 88.4616 70.88C87.2616 70.88 86.1416 70.8933 85.1016 70.92C84.0616 70.92 83.2082 70.9467 82.5416 71V70.2C83.4216 70.1467 84.0749 70.04 84.5016 69.88C84.9549 69.72 85.2482 69.4 85.3816 68.92C85.5416 68.44 85.6216 67.72 85.6216 66.76V46.92C85.6216 45.9333 85.5416 45.2133 85.3816 44.76C85.2482 44.28 84.9549 43.96 84.5016 43.8C84.0749 43.6133 83.4216 43.5067 82.5416 43.48V42.68ZM89.7016 56.88C90.9549 56.9333 91.9949 57 92.8216 57.08C93.6749 57.1333 94.3949 57.1867 94.9816 57.24C95.5949 57.2933 96.1416 57.36 96.6216 57.44C98.8349 57.6533 100.462 58.1733 101.502 59C102.568 59.8 103.275 61.0267 103.622 62.68L104.542 66.8C104.782 67.8933 105.035 68.68 105.302 69.16C105.595 69.6133 106.008 69.8267 106.542 69.8C106.915 69.8 107.235 69.7067 107.502 69.52C107.768 69.3067 108.035 69.0267 108.302 68.68L108.862 69.16C108.195 69.9867 107.488 70.6 106.742 71C105.995 71.3733 105.048 71.56 103.902 71.56C102.622 71.56 101.542 71.2667 100.662 70.68C99.7816 70.0667 99.1816 68.92 98.8616 67.24L98.1016 63.24C97.8882 62.12 97.6349 61.1333 97.3416 60.28C97.0749 59.4267 96.7016 58.76 96.2216 58.28C95.7416 57.8 95.0349 57.56 94.1016 57.56H89.7816L89.7016 56.88ZM122.292 42.56L132.012 67.64C132.412 68.6 132.839 69.2667 133.292 69.64C133.772 69.9867 134.212 70.1733 134.612 70.2V71C133.919 70.9467 133.079 70.92 132.092 70.92C131.132 70.8933 130.145 70.88 129.132 70.88C127.959 70.88 126.865 70.8933 125.852 70.92C124.839 70.92 124.012 70.9467 123.372 71V70.2C124.732 70.1467 125.599 69.92 125.972 69.52C126.345 69.0933 126.265 68.2 125.732 66.84L118.692 47.84L119.412 46.96L113.012 63.56C112.505 64.8933 112.199 65.9867 112.092 66.84C111.985 67.6933 112.052 68.36 112.292 68.84C112.532 69.32 112.932 69.6667 113.492 69.88C114.052 70.0667 114.745 70.1733 115.572 70.2V71C114.719 70.9467 113.892 70.92 113.092 70.92C112.292 70.8933 111.492 70.88 110.692 70.88C110.105 70.88 109.545 70.8933 109.012 70.92C108.505 70.92 108.052 70.9467 107.652 71V70.2C108.239 70.0667 108.812 69.72 109.372 69.16C109.959 68.6 110.519 67.6267 111.052 66.24L120.212 42.56C120.532 42.5867 120.879 42.6 121.252 42.6C121.625 42.6 121.972 42.5867 122.292 42.56ZM125.772 59.48V60.28H113.852L114.252 59.48H125.772Z" fill="#F6F6F6"/>
</svg>
