<svg width="800" height="800" viewBox="0 0 800 800" fill="none" xmlns="http://www.w3.org/2000/svg">
<path d="M271.337 228.153C251.096 228.153 237.357 230.123 230.213 232.138V362.242C238.731 364.166 249.126 364.807 263.506 364.807C316.491 364.807 349.189 338.017 349.189 292.862C349.144 252.379 321.025 228.153 271.337 228.153Z" fill="#FFD700"/>
<path d="M751.045 0.0917969H49.0011C21.936 0.0917969 0 21.982 0 48.9555V750.953C0 777.973 21.936 799.909 49.0011 799.909H751.045C778.064 799.909 800 777.973 800 750.953V49.0013C800 21.982 778.064 0.0917969 751.045 0.0917969ZM407.304 394.94C373.37 426.997 322.949 441.376 264.194 441.376C251.05 441.376 239.327 440.735 230.168 439.407V597.035H131.387V162.162C162.116 156.987 205.255 153.048 266.117 153.048C327.529 153.048 371.401 164.772 400.756 188.357C429.011 210.613 447.925 247.25 447.925 290.389C447.925 333.528 433.499 370.027 407.304 394.94ZM556.185 603.538C514.237 603.538 477.005 594.47 452.779 581.327L470.41 510.069C488.729 521.106 526.693 534.204 556.185 534.204C586.181 534.204 598.638 523.762 598.638 507.368C598.638 491.064 588.837 483.233 551.606 470.777C485.569 448.566 460.015 412.571 460.656 374.652C460.656 315.21 511.672 269.964 590.807 269.964C628.084 269.964 661.423 278.528 681.024 288.282L663.392 356.975C649.013 349.099 621.581 338.703 594.058 338.703C569.924 338.703 556.231 348.503 556.231 364.852C556.231 379.873 568.55 387.704 607.797 401.489C668.613 422.371 694.167 453.146 694.762 500.132C694.762 559.712 647.593 603.538 556.185 603.538Z" fill="#FFD700"/>
</svg>
