<svg width="8" height="12" viewBox="0 0 8 12" fill="none" xmlns="http://www.w3.org/2000/svg">
<path d="M0.192186 6.31599L7.23594 11.8176C7.25434 11.832 7.27646 11.841 7.29975 11.8435C7.32305 11.846 7.34657 11.8419 7.36762 11.8316C7.38867 11.8213 7.40639 11.8053 7.41875 11.7854C7.43111 11.7655 7.43761 11.7425 7.4375 11.7191L7.4375 10.5113C7.4375 10.4347 7.40156 10.3613 7.34219 10.3144L1.71719 5.92224L7.34219 1.53005C7.40312 1.48318 7.4375 1.40974 7.4375 1.33318L7.4375 0.125366C7.4375 0.0206787 7.31719 -0.0371336 7.23594 0.0269289L0.192186 5.52849C0.132319 5.57519 0.0838888 5.63493 0.0505782 5.70316C0.0172676 5.77139 -4.66825e-05 5.84631 -4.66892e-05 5.92224C-4.66958e-05 5.99817 0.0172675 6.0731 0.0505781 6.14133C0.0838887 6.20956 0.132319 6.26929 0.192186 6.31599Z" fill="#F6F6F6"/>
</svg>
