<svg width="8" height="12" viewBox="0 0 8 12" fill="none" xmlns="http://www.w3.org/2000/svg">
<path d="M7.24531 5.52825L0.201564 0.0266844C0.183158 0.0121941 0.161039 0.003189 0.137746 0.000703213C0.114453 -0.00178257 0.0909314 0.00235177 0.0698824 0.0126315C0.0488333 0.0229113 0.0311108 0.0389196 0.0187497 0.0588177C0.00638856 0.0787159 -0.000109707 0.101697 1.40129e-06 0.125122V1.33293C1.40129e-06 1.4095 0.035939 1.48293 0.095314 1.52981L5.72031 5.922L0.095314 10.3142C0.0343765 10.3611 1.40129e-06 10.4345 1.40129e-06 10.5111V11.7189C1.40129e-06 11.8236 0.120314 11.8814 0.201564 11.8173L7.24531 6.31575C7.30518 6.26905 7.35361 6.20931 7.38692 6.14108C7.42023 6.07285 7.43755 5.99792 7.43755 5.922C7.43755 5.84607 7.42023 5.77114 7.38692 5.70291C7.35361 5.63468 7.30518 5.57495 7.24531 5.52825Z" fill="#F6F6F6"/>
</svg>
