<svg width="523" height="535" viewBox="0 0 523 535" fill="none" xmlns="http://www.w3.org/2000/svg">
<path d="M522.212 189.419C521.083 185.943 517.845 183.591 514.191 183.591H500.218C487.477 151.459 468.191 121.965 443.013 96.7869C407.694 61.4677 363.302 37.3814 314.638 27.1334C310.084 26.1698 305.608 29.0899 304.648 33.6472C303.687 38.2056 306.604 42.6774 311.161 43.6377C356.617 53.211 398.086 75.7141 431.085 108.715C453.266 130.895 470.175 156.378 481.834 183.592H327.28L269.521 5.82788C268.392 2.35229 265.153 0 261.5 0C257.847 0 254.609 2.35229 253.48 5.82788L195.72 183.592H41.1651C52.8231 156.378 69.7322 130.895 91.9126 108.715C124.558 76.0694 165.549 53.6675 210.455 43.9334C215.006 42.9462 217.897 38.4564 216.91 33.9047C215.924 29.353 211.43 26.461 206.882 27.4494C158.807 37.8728 114.926 61.85 79.9869 96.788C54.8089 121.966 35.5228 151.46 22.782 183.592H8.80877C5.15552 183.592 1.91719 185.945 0.78827 189.42C-0.34065 192.895 0.896215 196.702 3.85232 198.848L14.848 206.837C8.23869 229.773 4.80246 253.773 4.80246 278.302C4.80246 346.868 31.5041 411.333 79.9881 459.817C86.4141 466.243 93.1292 472.274 100.088 477.923L97.3087 486.479C96.1797 489.953 97.4166 493.761 100.373 495.907C101.85 496.981 103.59 497.518 105.329 497.518C107.069 497.518 108.808 496.981 110.286 495.907L117.35 490.774C159.54 519.527 209.328 535.001 261.501 535.001C313.674 535.001 363.463 519.527 405.653 490.774L412.718 495.907C414.196 496.981 415.935 497.518 417.674 497.518C419.414 497.518 421.153 496.981 422.631 495.907C425.587 493.761 426.824 489.953 425.695 486.479L422.915 477.923C429.876 472.274 436.589 466.243 443.016 459.817C491.499 411.333 518.2 346.87 518.2 278.302C518.2 253.772 514.765 229.773 508.154 206.836L519.149 198.847C522.105 196.701 523.341 192.893 522.212 189.419ZM325.449 200.457H485.601L275.194 269.627L306.605 226.394L325.449 200.457ZM247.854 269.696L201.688 284.697L166.461 296.143L34.7638 200.459L247.854 269.696ZM121.369 467.004L253.067 285.737V371.319L121.369 467.004ZM269.957 285.745L351.328 312.185L401.4 466.285L269.957 285.745ZM261.5 35.724V259.782L211.196 190.545L261.5 35.724ZM91.9126 447.888C29.5971 385.572 8.82451 297.218 29.5634 217.527L155.067 308.712L105.701 460.643C100.981 456.603 96.3788 452.354 91.9126 447.888ZM131.964 480.154L261.5 386.04L391.036 480.153C312.424 530.621 210.577 530.621 131.964 480.154ZM431.087 447.888C426.62 452.354 422.019 456.603 417.299 460.642L367.933 308.712L493.437 217.527C514.176 297.218 493.403 385.572 431.087 447.888Z" fill="#F6F6F6"/>
</svg>
