<svg width="2500" height="2500" viewBox="0 0 2500 2500" fill="none" xmlns="http://www.w3.org/2000/svg">
<g clip-path="url(#clip0_132_25)">
<path d="M0 0H2100C2206.09 0 2307.83 42.1427 2382.84 117.157C2457.86 192.172 2500 293.913 2500 400V2100C2500 2206.09 2457.86 2307.83 2382.84 2382.84C2307.83 2457.86 2206.09 2500 2100 2500H400C293.913 2500 192.172 2457.86 117.157 2382.84C42.1427 2307.83 0 2206.09 0 2100L0 0Z" fill="#FFD700"/>
<path d="M2041.35 2299.75C1960.37 2299.75 1898.45 2276.2 1855.1 2228.87C1812.22 2181.3 1789.9 2113.42 1787.9 2024.77H1962.4C1963.4 2103.17 1990.95 2142.47 2045.1 2142.47C2072.7 2142.47 2092.25 2133.72 2103.52 2116.42C2114.55 2099.17 2120.32 2071.6 2120.32 2033.8C2120.32 2003.75 2112.8 1978.7 2098.25 1958.92C2078.51 1935.4 2053.16 1917.23 2024.55 1906.07L1959.87 1875C1902.22 1847.45 1860.35 1814.9 1834.52 1776.82C1809.45 1739 1796.92 1685.93 1796.92 1618.08C1796.92 1542.18 1819 1480.57 1862.85 1433.22C1907.97 1385.9 1969.4 1362.38 2047.85 1362.38C2123.6 1362.38 2182.25 1385.65 2223.6 1431.98C2265.72 1478.58 2287.77 1545.18 2289.55 1632.33H2121.57C2122.57 1603.83 2116.82 1575.52 2104.77 1549.67C2095.27 1530.67 2076.7 1521.15 2049.12 1521.15C2000 1521.15 1975.42 1550.42 1975.42 1608.77C1975.42 1638.35 1981.42 1661.37 1993.47 1678.9C2010.83 1698.29 2032.58 1713.24 2056.9 1722.5L2118.82 1749.8C2182.75 1779.1 2228.87 1814.92 2257.2 1858.25C2285.77 1901.32 2299.82 1958.92 2299.82 2031.05C2299.82 2117.45 2277.25 2183.8 2231.37 2230.12C2185.75 2276.45 2122.3 2299.75 2041.35 2299.75ZM1477.8 2299.75C1396.8 2299.75 1334.9 2276.2 1291.52 2228.87C1248.65 2181.3 1226.35 2113.42 1224.35 2024.77H1398.82C1399.82 2103.17 1427.4 2142.47 1481.57 2142.47C1509.12 2142.47 1528.67 2133.72 1539.7 2116.42C1551 2099.17 1556.5 2071.6 1556.5 2033.8C1556.5 2003.75 1549.25 1978.7 1534.7 1958.92C1514.96 1935.4 1489.61 1917.23 1461 1906.07L1396.32 1875C1338.65 1847.45 1296.8 1814.9 1270.97 1776.82C1245.9 1739 1233.37 1685.93 1233.37 1618.08C1233.37 1542.18 1255.42 1480.57 1299.3 1433.22C1344.42 1385.9 1405.85 1362.38 1484.3 1362.38C1560.02 1362.38 1618.67 1385.65 1659.8 1431.98C1702.42 1478.58 1724.22 1545.18 1725.97 1632.33H1558.02C1559.02 1603.83 1553.27 1575.52 1541.22 1549.67C1531.7 1530.67 1513.15 1521.15 1485.57 1521.15C1436.42 1521.15 1411.85 1550.42 1411.85 1608.77C1411.85 1638.35 1417.87 1661.37 1429.9 1678.9C1447.26 1698.29 1469 1713.24 1493.32 1722.5L1555.25 1749.8C1619.17 1779.1 1665.3 1814.92 1693.65 1858.25C1721.97 1901.32 1736.25 1958.92 1736.25 2031.05C1736.25 2117.45 1713.45 2183.8 1667.82 2230.12C1622.2 2276.45 1558.77 2299.75 1477.8 2299.75ZM890.924 2299.75C811.674 2299.75 748.774 2278.2 702.149 2235.12C655.524 2192.32 632.449 2127.95 632.449 2042.8V1622.07C632.449 1537.45 657.024 1473.32 706.149 1429.25C756.049 1385.67 821.474 1363.65 902.449 1363.65C980.924 1363.65 1042.82 1386.18 1088.7 1430.75C1135.1 1475.58 1158.4 1542.2 1158.4 1631.1V1664.4H973.649V1632.1C973.649 1597.8 966.124 1572.5 951.574 1555.97C945.219 1547.71 937.002 1541.07 927.592 1536.58C918.181 1532.1 907.845 1529.9 897.424 1530.18C867.349 1530.18 846.049 1540.43 833.999 1561.23C821.174 1590 815.413 1621.42 817.199 1652.87V2018.52C817.199 2094.9 844.049 2133.72 897.449 2134.47C922.499 2134.47 941.299 2125.45 954.349 2107.42C968.521 2084.66 975.266 2058.05 973.649 2031.27V2004H1158.4V2032.55C1158.4 2091.9 1146.87 2141.47 1123.55 2181.05C1101.38 2219.67 1068.1 2250.73 1028.05 2270.2C985.274 2290.62 938.312 2300.74 890.924 2299.75Z" fill="#F6F6F6"/>
</g>
<defs>
<clipPath id="clip0_132_25">
<rect width="2500" height="2500" fill="white"/>
</clipPath>
</defs>
</svg>
