<svg width="271" height="162" viewBox="0 0 271 162" fill="none" xmlns="http://www.w3.org/2000/svg">
<path fill-rule="evenodd" clip-rule="evenodd" d="M245.729 0H25.1505C11.1912 0 -0.109184 11.4111 0.000796027 25.2596V109.458C0.000796027 123.417 11.302 134.718 25.2613 134.718H129.734L177.484 161.307L166.627 134.718H245.729C259.689 134.718 270.988 123.417 270.988 109.458V25.2596C270.988 11.3003 259.689 0 245.729 0ZM20.4979 19.4986C17.3958 19.7202 15.0692 20.8281 13.5182 22.933C11.9672 24.9272 11.4133 27.4753 11.7456 30.3558C18.2821 71.9016 24.3754 99.9306 30.0256 114.444C32.2414 119.761 34.7895 122.31 37.7808 122.088C42.4338 121.756 47.9732 115.33 54.5097 102.811C57.9441 95.7204 63.262 85.0853 70.4632 70.9041C76.4454 91.8428 84.6436 107.575 94.9473 118.1C97.828 121.091 100.819 122.421 103.699 122.199C106.248 121.977 108.241 120.648 109.571 118.21C110.679 116.105 111.122 113.668 110.901 110.898C110.236 100.817 111.233 86.7469 114.003 68.6884C116.883 50.0761 120.428 36.6707 124.749 28.694C125.635 27.0322 125.968 25.3703 125.857 23.3762C125.635 20.828 124.528 18.7231 122.423 17.0613C120.318 15.3995 117.991 14.624 115.443 14.8455C112.23 15.0671 109.793 16.6181 108.131 19.7202C101.262 32.2392 96.3873 52.5134 93.5073 80.6535C89.2971 70.0179 85.7516 57.4988 82.982 42.764C81.7636 36.2276 78.7725 33.1255 73.8974 33.4579C70.5739 33.6794 67.8043 35.8952 65.5885 40.1051L41.326 86.3037C37.3376 70.2394 33.5708 50.63 30.1364 27.4753C29.3609 21.7144 26.148 19.0554 20.4979 19.4986ZM233.986 27.4757C241.852 29.1376 247.724 33.3475 251.712 40.3271C255.257 46.3097 257.029 53.5109 257.029 62.1523C257.029 73.5632 254.149 83.9773 248.388 93.5051C241.741 104.584 233.1 110.123 222.353 110.123C220.47 110.123 218.476 109.902 216.37 109.458C208.505 107.797 202.633 103.587 198.644 96.6074C195.1 90.514 193.327 83.2021 193.327 74.6711C193.327 63.2602 196.208 52.8461 201.968 43.4292C208.726 32.3504 217.368 26.811 228.004 26.811C229.887 26.811 231.881 27.0326 233.986 27.4757ZM229.333 87.4117C233.432 83.7558 236.202 78.3271 237.753 71.0152C238.196 68.4672 238.528 65.6975 238.528 62.817C238.528 59.6042 237.863 56.1698 236.534 52.7353C234.872 48.4146 232.656 46.0881 229.997 45.5341C226.009 44.7586 222.132 46.9744 218.476 52.403C215.485 56.6129 213.601 61.0444 212.604 65.5867C212.05 68.1349 211.828 70.9048 211.828 73.6743C211.828 76.8871 212.493 80.3214 213.822 83.7557C215.485 88.0765 217.7 90.4028 220.359 90.9572C223.129 91.5108 226.12 90.2924 229.333 87.4117ZM182.248 40.3271C178.259 33.3475 172.277 29.1376 164.522 27.4757C162.416 27.0326 160.423 26.811 158.539 26.811C147.904 26.811 139.262 32.3504 132.504 43.4292C126.743 52.8461 123.863 63.2602 123.863 74.6711C123.863 83.2021 125.635 90.514 129.18 96.6074C133.169 103.587 139.041 107.797 146.906 109.458C149.011 109.902 151.005 110.123 152.889 110.123C163.635 110.123 172.277 104.584 178.924 93.5051C184.685 83.9773 187.565 73.5632 187.565 62.1523C187.565 53.5109 185.793 46.3097 182.248 40.3271ZM168.288 71.0152C166.738 78.3271 163.968 83.7558 159.868 87.4117C156.656 90.2924 153.664 91.5108 150.895 90.9572C148.236 90.4028 146.02 88.0765 144.358 83.7557C143.029 80.3214 142.364 76.8871 142.364 73.6743C142.364 70.9048 142.586 68.1349 143.14 65.5867C144.137 61.0444 146.02 56.6129 149.011 52.403C152.668 46.9744 156.545 44.7586 160.533 45.5341C163.192 46.0881 165.408 48.4146 167.07 52.7353C168.399 56.1698 169.064 59.6042 169.064 62.817C169.064 65.6975 168.843 68.4672 168.288 71.0152Z" fill="#FFD700"/>
</svg>
