<svg width="512" height="512" viewBox="0 0 512 512" fill="none" xmlns="http://www.w3.org/2000/svg">
<g clip-path="url(#clip0_132_18)">
<path d="M435.2 0H76.8C34.3845 0 0 34.3845 0 76.8V435.2C0 477.615 34.3845 512 76.8 512H435.2C477.615 512 512 477.615 512 435.2V76.8C512 34.3845 477.615 0 435.2 0Z" fill="#FFD700"/>
<path d="M256 446C360.934 446 446 360.934 446 256C446 151.066 360.934 66 256 66C151.066 66 66 151.066 66 256C66 360.934 151.066 446 256 446Z" stroke="#F6F6F6" stroke-width="20"/>
<path d="M204 436L260 272L318 431L347 415L403 253C413 227 416 206 416 188C417 155 403 126 379 123C357 121 345 142 346 155C348 185 378 202 378 243C378 273 359 320 346 365L281 171C292 170 302 170 302 170C312 169 311 154 301 155C268 158 238 157 205 155C195 154 194 169 204 170C204 170 213 170 223 171L251 248L211 367L146 171C157 170 166 170 166 170C176 169 175 154 165 155C135 157 106 159 99 154L90 179L178 422L204 436Z" fill="#F6F6F6"/>
</g>
<defs>
<clipPath id="clip0_132_18">
<rect width="512" height="512" fill="white"/>
</clipPath>
</defs>
</svg>
